<svg version="1.1" id="Layer_1" xmlns="http://www.w3.org/2000/svg" xmlns:xlink="http://www.w3.org/1999/xlink" x="0px" y="0px"
	 width="100%" viewBox="0 0 500 500" enable-background="new 0 0 500 500" xml:space="preserve">
<path fill="#292929" opacity="1.000000" stroke="none" 
	d="
M341.000000,501.000000 
	C227.333359,501.000000 114.166718,501.000000 1.000061,501.000000 
	C1.000041,334.333405 1.000041,167.666794 1.000020,1.000150 
	C167.666565,1.000100 334.333130,1.000100 500.999756,1.000050 
	C500.999847,167.666519 500.999847,334.333038 500.999939,500.999786 
	C447.833344,501.000000 394.666656,501.000000 341.000000,501.000000 
M167.219711,145.039383 
	C161.886749,147.944077 156.553772,150.848755 151.054123,154.708923 
	C151.035095,163.370941 151.007736,172.032959 150.999466,180.694992 
	C150.991760,188.773865 151.000687,188.773880 159.451889,192.446503 
	C160.987778,193.334259 162.523666,194.222000 163.768845,195.730530 
	C159.631546,198.053894 155.494247,200.377258 151.094116,203.643875 
	C151.061722,213.774719 150.940399,223.906921 151.093918,234.034958 
	C151.116653,235.534973 152.041229,237.736710 153.223022,238.385742 
	C160.038620,242.128830 167.056992,245.502670 174.434128,249.534332 
	C177.608490,251.096573 180.782837,252.658798 184.385941,254.723648 
	C186.629150,255.800247 188.872360,256.876831 191.568344,258.447174 
	C194.707336,259.988525 197.846329,261.529846 201.419388,263.596436 
	C204.585815,265.147919 207.752243,266.699371 211.350281,268.755615 
	C215.247940,270.737793 219.145599,272.719940 223.636887,275.096680 
	C227.734024,277.152893 231.831177,279.209106 236.388046,281.745972 
	C241.256073,284.108337 246.124115,286.470673 251.711945,288.866302 
	C256.089264,286.548920 260.466553,284.231506 265.548981,281.799133 
	C269.045471,279.878540 272.541931,277.957947 276.745392,275.928558 
	C279.864319,273.972351 282.983276,272.016144 286.844910,270.079071 
	C289.583008,268.753235 292.321136,267.427399 295.768219,265.976135 
	C299.436218,263.959167 303.104248,261.942200 307.438507,259.652222 
	C310.320679,258.149384 313.202850,256.646545 316.795593,255.019348 
	C321.184357,252.671371 325.573120,250.323395 330.641754,247.769867 
	C334.155334,245.872177 337.668915,243.974487 341.802185,241.741547 
	C344.030762,240.719269 346.411224,239.925888 348.429352,238.586548 
	C349.590057,237.816269 350.877136,236.168945 350.889801,234.904221 
	C350.996368,224.266571 350.821167,213.626068 350.466095,202.387695 
	C346.149994,199.980972 341.833893,197.574249 338.178680,194.800125 
	C341.559692,193.014786 345.062775,191.418213 348.261108,189.350311 
	C349.523865,188.533859 350.860321,186.678162 350.880615,185.277115 
	C351.032379,174.797089 350.862915,164.312439 350.524750,153.249146 
	C340.017395,147.829971 329.510071,142.410782 318.576416,136.455475 
	C314.743744,134.548813 310.911102,132.642166 306.652679,130.226578 
	C303.099823,128.480820 299.546936,126.735069 295.568573,124.456276 
	C292.400696,122.891983 289.232819,121.327682 285.619934,119.267418 
	C281.735535,117.278641 277.851166,115.289856 273.365723,112.919106 
	C269.933411,111.205696 266.501068,109.492287 262.623718,107.280312 
	C258.775391,105.470154 254.927048,103.659988 250.531250,101.686478 
	C247.712875,103.138313 244.894501,104.590157 241.390961,106.156616 
	C239.218887,107.413109 237.046829,108.669601 234.172775,110.028427 
	C231.123260,111.692627 228.073730,113.356827 224.342026,115.132477 
	C222.191071,116.350487 220.040115,117.568497 217.410446,118.907890 
	C217.410446,118.907890 216.985062,119.160553 216.468918,119.221054 
	C216.226379,119.460350 215.983826,119.699654 215.055054,119.983887 
	C213.025955,121.080437 210.996872,122.176987 208.310715,123.452606 
	C204.930405,125.319725 201.550095,127.186852 197.467468,129.172638 
	C194.967468,130.532196 192.467468,131.891754 189.311172,133.431488 
	C185.258102,135.639526 181.205048,137.847549 176.448364,140.167572 
	C173.607712,141.752731 170.767075,143.337891 167.219711,145.039383 
M81.017319,345.283142 
	C80.629532,348.708740 80.241753,352.134369 79.825394,355.812439 
	C81.845825,355.812439 83.422699,355.812439 85.280235,355.812439 
	C86.712814,344.665863 88.126610,333.665436 89.540405,322.664978 
	C93.735703,331.963318 97.196541,341.133820 99.727531,350.554169 
	C101.176247,355.946289 103.768356,357.116089 108.574539,355.497009 
	C112.133537,344.758453 115.692154,334.021057 119.250771,323.283630 
	C119.702805,323.308746 120.154839,323.333862 120.606873,323.358978 
	C122.009041,334.138123 123.411201,344.917267 124.826134,355.794525 
	C126.657242,355.794525 128.238663,355.794525 130.322815,355.794525 
	C128.605698,341.543793 126.922935,327.578247 125.254272,313.729675 
	C117.100693,312.678619 117.108994,312.681305 114.797913,319.814636 
	C111.716377,329.325958 108.620331,338.832611 105.530518,348.341248 
	C101.448830,338.768860 98.336006,329.215485 95.240700,319.656433 
	C92.925056,312.505157 92.935112,312.501892 84.852760,313.832886 
	C83.603119,323.948090 82.340828,334.165802 81.017319,345.283142 
M190.911896,318.726410 
	C190.911896,316.971741 190.911896,315.217102 190.911896,313.140289 
	C188.541321,313.300751 186.959015,313.407867 184.824310,313.552368 
	C184.824310,324.896179 184.824310,335.893799 184.824310,348.262054 
	C177.692459,337.059540 171.183899,327.220825 165.119644,317.115479 
	C162.791626,313.236145 160.115051,312.440552 156.205872,313.710876 
	C156.205872,327.867645 156.205872,341.807648 156.205872,356.064178 
	C158.169693,355.955139 159.869736,355.860779 161.992035,355.742950 
	C161.992035,344.542725 161.992035,333.841309 161.992035,323.139893 
	C169.069550,332.640839 175.519440,342.251282 181.402435,352.197052 
	C183.853302,356.340454 186.641632,357.150330 190.911896,355.745270 
	C190.911896,343.660065 190.911896,331.666504 190.911896,318.726410 
M209.494598,313.231995 
	C206.891602,313.231995 204.288589,313.231995 201.591644,313.231995 
	C201.591644,327.842194 201.591644,341.837463 201.591644,355.894043 
	C206.621384,355.894043 211.287598,356.163818 215.912003,355.838806 
	C226.062042,355.125488 231.405457,350.564941 233.112961,341.635193 
	C236.729752,322.720581 229.755554,313.986267 209.494598,313.231995 
M323.564514,319.914429 
	C318.879547,331.751099 314.194611,343.587769 309.504669,355.437042 
	C313.488922,356.853424 315.740814,355.890106 316.635681,352.132172 
	C316.979279,350.689148 317.834930,349.363098 318.140839,347.916809 
	C319.212524,342.850403 322.068390,341.287872 327.303650,341.543549 
	C337.366486,342.034912 337.469879,341.652588 341.037109,351.247925 
	C342.322784,354.706207 343.658112,357.444824 348.537262,355.388824 
	C343.175934,341.875000 337.886536,328.302368 332.360474,314.826782 
	C331.318604,312.286041 326.906403,312.557037 325.529358,315.048981 
	C324.812836,316.345612 324.404236,317.812378 323.564514,319.914429 
M391.272278,349.354187 
	C391.272278,351.469513 391.272278,353.584808 391.272278,355.756592 
	C393.486328,355.756592 395.071594,355.756592 397.312897,355.756592 
	C397.312897,349.381439 397.312897,343.249146 397.312897,335.974243 
	C402.595642,342.169617 407.190338,347.210236 411.360687,352.580475 
	C413.827087,355.756500 416.545807,356.801331 420.853394,355.499786 
	C415.027161,348.632019 409.386047,341.982483 403.583527,335.142670 
	C409.125153,328.560364 414.431915,322.257050 419.949432,315.703400 
	C418.231659,314.543549 417.068878,313.758453 415.823334,312.917480 
	C409.726105,320.119537 403.872253,327.034180 396.979706,335.175751 
	C396.979706,326.906952 396.979706,320.213135 396.979706,313.163208 
	C394.774414,313.327850 393.214691,313.444305 391.272400,313.589325 
	C391.272400,325.471741 391.272400,336.928467 391.272278,349.354187 
M247.320847,356.233185 
	C251.276657,356.153473 255.325867,356.582428 259.166779,355.877045 
	C265.204773,354.768127 268.677307,350.422699 268.960266,344.866852 
	C269.266754,338.848114 266.716278,335.105896 260.537872,332.883759 
	C257.258026,331.704193 253.556824,331.338043 250.652557,329.594208 
	C248.613007,328.369598 246.603943,325.545715 246.358444,323.246246 
	C245.994278,319.835419 248.918518,317.814911 252.249771,317.862579 
	C255.853317,317.914124 259.445557,318.705292 263.045013,319.155396 
	C263.516693,319.214355 264.002075,319.163483 264.664429,319.163483 
	C265.134766,317.954559 265.597473,316.765198 266.547119,314.324280 
	C260.933563,313.847504 255.887497,312.911011 250.890961,313.125977 
	C244.936081,313.382172 241.011459,317.382172 240.267761,322.613190 
	C239.490585,328.079590 242.400299,332.657013 248.329239,334.848724 
	C251.753174,336.114441 255.528671,336.604980 258.715851,338.268463 
	C260.588379,339.245758 262.713379,341.823303 262.740173,343.709229 
	C262.771484,345.913483 261.162170,349.259125 259.331055,350.117126 
	C256.375336,351.502075 252.658096,351.574280 249.258972,351.594116 
	C246.866180,351.608124 244.467529,350.615479 241.760422,350.001770 
	C241.268219,351.526672 240.846603,352.832916 240.318085,354.470398 
	C242.684448,355.095703 244.589539,355.599121 247.320847,356.233185 
M374.129089,351.893463 
	C363.793579,352.139313 359.490356,348.207764 358.929352,337.960480 
	C358.838593,336.303040 358.832123,334.636322 358.880768,332.976624 
	C359.250885,320.340698 365.310211,315.456055 377.657623,318.382202 
	C381.598389,319.316071 382.301025,318.094971 382.122314,314.843964 
	C364.249664,308.510712 353.131348,316.091217 352.913055,334.469269 
	C352.901215,335.466187 352.913177,336.464172 352.944702,337.460693 
	C353.387756,351.464081 361.563080,358.452209 375.432983,356.586548 
	C378.178070,356.217316 380.875946,355.496643 383.931213,354.869110 
	C383.202667,352.999207 382.693604,351.692596 382.181763,350.378906 
	C379.510712,350.907349 377.236176,351.357330 374.129089,351.893463 
M276.299347,313.272583 
	C275.592041,314.576141 274.884766,315.879669 273.684662,318.091461 
	C279.214966,318.091461 283.306885,318.091461 287.915741,318.091461 
	C287.915741,330.939056 287.915741,343.344330 287.915741,356.061096 
	C290.042969,355.936981 291.610535,355.845520 293.583466,355.730408 
	C293.583466,343.092987 293.583466,330.820435 293.583466,318.008179 
	C298.072388,318.008179 302.158508,318.008179 306.113098,318.008179 
	C307.208282,314.585785 306.526947,313.148285 303.145477,313.198242 
	C294.484283,313.326263 285.819946,313.243286 276.299347,313.272583 
M138.987961,343.488647 
	C138.987961,347.592560 138.987961,351.696472 138.987961,355.821716 
	C141.104599,355.821716 142.702789,355.821716 144.464447,355.821716 
	C144.464447,341.615662 144.464447,327.617889 144.464447,313.482727 
	C142.562271,313.482727 140.988693,313.482727 138.987961,313.482727 
	C138.987961,323.314148 138.987961,332.902679 138.987961,343.488647 
M350.952301,379.778900 
	C350.952301,382.370758 350.952301,384.962646 350.952301,387.772003 
	C354.563446,387.849426 358.322815,389.410767 359.041687,384.756714 
	C359.967834,378.760590 358.138885,375.909485 354.068787,376.258087 
	C352.966858,376.352509 351.995148,377.967255 350.952301,379.778900 
M200.642639,379.066376 
	C201.482162,379.282562 202.321671,379.498779 203.885864,379.901581 
	C202.197556,376.265991 199.592789,375.097931 197.195236,376.540558 
	C195.310608,377.674561 193.308731,380.543152 193.424622,382.520111 
	C193.536560,384.429688 195.984650,386.893585 197.991501,387.761841 
	C199.367813,388.357269 201.745087,386.639099 203.674927,385.955170 
	C203.514740,385.414276 203.354568,384.873352 203.194397,384.332458 
	C200.575012,384.569458 197.001572,388.466309 195.827316,383.075439 
	C195.182602,380.115723 196.432526,378.197266 200.642639,379.066376 
M120.226288,380.675537 
	C120.372345,383.051575 120.518394,385.427612 120.719772,388.703674 
	C122.796165,386.049072 123.984253,384.558899 125.139900,383.043945 
	C126.121109,381.757690 127.064835,380.442780 128.025162,379.140564 
	C126.509171,378.140411 125.113258,376.674622 123.449959,376.245728 
	C120.740181,375.546967 120.086472,377.500244 120.226288,380.675537 
M325.890076,387.775421 
	C328.777985,387.255859 331.665894,386.736298 335.057068,386.126190 
	C333.917999,383.366486 332.433685,379.770355 330.949371,376.174255 
	C330.423248,376.215820 329.897125,376.257416 329.371002,376.299011 
	C328.036438,379.958038 326.701874,383.617065 325.890076,387.775421 
M267.668365,386.704895 
	C268.478546,387.107880 269.288696,387.510834 270.098877,387.913788 
	C266.619171,383.830658 268.388306,380.087860 270.888153,376.306671 
	C270.228851,376.019714 269.569550,375.732727 268.910217,375.445770 
	C268.133942,377.090973 267.357697,378.736176 266.604645,380.332184 
	C264.496887,378.393951 263.270294,377.266022 262.043701,376.138062 
	C261.579742,376.281891 261.115814,376.425751 260.651855,376.569611 
	C264.388336,380.265594 263.760468,384.033142 261.011719,387.518951 
	C263.577484,386.955505 265.410675,386.552917 267.668365,386.704895 
M240.500397,388.027130 
	C242.173782,387.923096 243.847153,387.819092 245.520538,387.715088 
	C245.521408,387.348938 245.522278,386.982819 245.523163,386.616699 
	C243.719025,386.138092 241.914902,385.659515 240.110779,385.180908 
	C240.121796,384.771942 240.132797,384.362946 240.143814,383.953979 
	C241.816864,383.465485 243.489929,382.977020 246.413635,382.123413 
	C243.559525,381.218597 241.932678,380.702881 239.083618,379.799683 
	C242.125183,378.798553 243.869995,378.224243 245.614792,377.649933 
	C245.581665,377.336548 245.548523,377.023163 245.515396,376.709778 
	C243.138016,376.709778 240.760651,376.709778 237.177017,376.709778 
	C238.060532,380.762543 238.845261,384.362183 240.500397,388.027130 
M379.374695,381.140930 
	C378.730164,380.577393 378.085663,380.013885 377.214661,379.252380 
	C378.912750,378.819672 380.130859,378.509277 381.348969,378.198914 
	C381.272461,377.646942 381.195953,377.094971 381.119446,376.542999 
	C379.306274,376.731354 376.664764,376.222443 375.820129,377.225983 
	C371.661041,382.167267 379.616882,381.921661 379.782715,386.053925 
	C377.781891,385.507141 376.157288,385.063171 374.532684,384.619232 
	C374.330719,385.075958 374.128754,385.532715 373.926788,385.989471 
	C375.443634,386.674561 376.939941,387.824554 378.484100,387.892822 
	C379.650909,387.944397 381.879486,386.602631 381.871887,385.900085 
	C381.855835,384.422607 380.680481,382.957733 379.374695,381.140930 
M153.077499,380.731171 
	C152.911240,379.320557 152.744980,377.909973 152.571838,376.440979 
	C150.984283,378.329865 149.869904,379.655762 148.755524,380.981659 
	C147.349518,379.656372 145.943527,378.331055 144.363007,376.841248 
	C144.363007,380.337738 144.363007,383.949127 144.363007,387.934784 
	C145.957184,386.007507 147.134521,384.584198 148.311874,383.160858 
	C149.663635,384.554169 151.015381,385.947510 152.798264,387.785187 
	C152.895218,385.644379 152.986618,383.626068 153.077499,380.731171 
M178.222519,377.499237 
	C177.567902,377.228180 176.505478,376.564178 176.325760,376.750671 
	C175.267731,377.848663 174.415359,379.144806 173.365738,380.544891 
	C171.997238,378.688721 170.876968,377.169189 169.756683,375.649689 
	C169.409058,376.014465 169.061432,376.379242 168.713821,376.744049 
	C170.242752,380.469116 171.771698,384.194214 173.421570,388.213898 
	C175.095337,384.506042 176.540909,381.303650 178.222519,377.499237 
M303.949738,383.453796 
	C304.065521,384.889587 304.181305,386.325348 304.322510,388.076813 
	C306.742706,387.940491 308.713684,387.829468 310.684631,387.718475 
	C310.697784,387.351288 310.710907,386.984131 310.724060,386.616943 
	C309.276947,386.193726 307.829834,385.770508 306.479614,385.375610 
	C306.139984,382.262573 305.829254,379.414642 305.518555,376.566711 
	C304.995422,376.614838 304.472321,376.662964 303.949188,376.711121 
	C303.949188,378.656647 303.949188,380.602173 303.949738,383.453796 
z"/>
<path fill="#F4F4F4" opacity="1.000000" stroke="none" 
	d="
M81.047928,344.833313 
	C82.340828,334.165802 83.603119,323.948090 84.852760,313.832886 
	C92.935112,312.501892 92.925056,312.505157 95.240700,319.656433 
	C98.336006,329.215485 101.448830,338.768860 105.530518,348.341248 
	C108.620331,338.832611 111.716377,329.325958 114.797913,319.814636 
	C117.108994,312.681305 117.100693,312.678619 125.254272,313.729675 
	C126.922935,327.578247 128.605698,341.543793 130.322815,355.794525 
	C128.238663,355.794525 126.657242,355.794525 124.826134,355.794525 
	C123.411201,344.917267 122.009041,334.138123 120.606873,323.358978 
	C120.154839,323.333862 119.702805,323.308746 119.250771,323.283630 
	C115.692154,334.021057 112.133537,344.758453 108.574539,355.497009 
	C103.768356,357.116089 101.176247,355.946289 99.727531,350.554169 
	C97.196541,341.133820 93.735703,331.963318 89.540405,322.664978 
	C88.126610,333.665436 86.712814,344.665863 85.280235,355.812439 
	C83.422699,355.812439 81.845825,355.812439 79.825394,355.812439 
	C80.241753,352.134369 80.629532,348.708740 81.047928,344.833313 
z"/>
<path fill="#D0D237" opacity="1.000000" stroke="none" 
	d="
M350.794037,153.829224 
	C350.862915,164.312439 351.032379,174.797089 350.880615,185.277115 
	C350.860321,186.678162 349.523865,188.533859 348.261108,189.350311 
	C345.062775,191.418213 341.559692,193.014786 337.571686,195.077576 
	C335.319885,196.285568 333.675079,197.216125 331.694336,198.206482 
	C329.294373,199.205551 327.230316,200.144821 324.869995,200.822113 
	C324.049194,198.370987 323.115509,196.189819 323.072510,193.991226 
	C322.905182,185.432190 323.020416,176.867615 323.324402,168.097809 
	C332.676849,163.203430 341.735443,158.516342 350.794037,153.829224 
z"/>
<path fill="#34A5B6" opacity="1.000000" stroke="none" 
	d="
M174.006668,249.001617 
	C167.056992,245.502670 160.038620,242.128830 153.223022,238.385742 
	C152.041229,237.736710 151.116653,235.534973 151.093918,234.034958 
	C150.940399,223.906921 151.061722,213.774719 151.511932,203.355286 
	C159.728561,207.317169 167.527344,211.567642 175.023071,216.132172 
	C174.479935,218.538376 174.050827,220.628891 174.032700,222.722946 
	C173.956879,231.481918 174.004364,240.241959 174.006668,249.001617 
z"/>
<path fill="#F2F2F2" opacity="1.000000" stroke="none" 
	d="
M190.911896,319.199707 
	C190.911896,331.666504 190.911896,343.660065 190.911896,355.745270 
	C186.641632,357.150330 183.853302,356.340454 181.402435,352.197052 
	C175.519440,342.251282 169.069550,332.640839 161.992035,323.139893 
	C161.992035,333.841309 161.992035,344.542725 161.992035,355.742950 
	C159.869736,355.860779 158.169693,355.955139 156.205872,356.064178 
	C156.205872,341.807648 156.205872,327.867645 156.205872,313.710876 
	C160.115051,312.440552 162.791626,313.236145 165.119644,317.115479 
	C171.183899,327.220825 177.692459,337.059540 184.824310,348.262054 
	C184.824310,335.893799 184.824310,324.896179 184.824310,313.552368 
	C186.959015,313.407867 188.541321,313.300751 190.911896,313.140289 
	C190.911896,315.217102 190.911896,316.971741 190.911896,319.199707 
z"/>
<path fill="#CFD238" opacity="1.000000" stroke="none" 
	d="
M175.326141,215.818115 
	C167.527344,211.567642 159.728561,207.317169 151.643372,202.883667 
	C155.494247,200.377258 159.631546,198.053894 164.253601,195.362686 
	C166.151154,194.284912 167.563934,193.574997 169.326706,192.840302 
	C173.805008,190.594955 177.933319,188.374374 182.390381,186.084473 
	C184.141861,185.390991 185.564560,184.766815 187.050323,184.488541 
	C187.284027,188.394119 188.412582,192.246033 187.433624,195.455002 
	C185.117722,203.046417 187.861984,209.924957 188.876572,217.309128 
	C187.415787,218.325394 186.151459,219.089798 184.536667,219.836609 
	C181.232834,218.485397 178.279495,217.151749 175.326141,215.818115 
z"/>
<path fill="#F2F2F2" opacity="1.000000" stroke="none" 
	d="
M209.965485,313.233826 
	C229.755554,313.986267 236.729752,322.720581 233.112961,341.635193 
	C231.405457,350.564941 226.062042,355.125488 215.912003,355.838806 
	C211.287598,356.163818 206.621384,355.894043 201.591644,355.894043 
	C201.591644,341.837463 201.591644,327.842194 201.591644,313.231995 
	C204.288589,313.231995 206.891602,313.231995 209.965485,313.233826 
M225.050476,346.336792 
	C228.862457,339.844269 228.908981,332.832489 226.434662,326.161987 
	C225.382889,323.326569 222.184219,320.490936 219.290619,319.336823 
	C215.669083,317.892395 211.357361,318.178467 207.227722,317.704254 
	C207.227722,329.362427 207.227722,340.105286 207.227722,351.113373 
	C213.545258,351.241913 219.738098,352.057251 225.050476,346.336792 
z"/>
<path fill="#DADE02" opacity="1.000000" stroke="none" 
	d="
M323.710541,319.558350 
	C324.404236,317.812378 324.812836,316.345612 325.529358,315.048981 
	C326.906403,312.557037 331.318604,312.286041 332.360474,314.826782 
	C337.886536,328.302368 343.175934,341.875000 348.537262,355.388824 
	C343.658112,357.444824 342.322784,354.706207 341.037109,351.247925 
	C337.469879,341.652588 337.366486,342.034912 327.303650,341.543549 
	C322.068390,341.287872 319.212524,342.850403 318.140839,347.916809 
	C317.834930,349.363098 316.979279,350.689148 316.635681,352.132172 
	C315.740814,355.890106 313.488922,356.853424 309.504669,355.437042 
	C314.194611,343.587769 318.879547,331.751099 323.710541,319.558350 
M330.670319,324.035278 
	C330.180817,323.107330 329.691315,322.179382 328.789001,320.468872 
	C326.540558,326.337555 324.627441,331.330902 322.590393,336.647736 
	C327.114349,336.647736 330.965363,336.647736 335.383728,336.647736 
	C333.788055,332.388763 332.354095,328.561340 330.670319,324.035278 
z"/>
<path fill="#34A5B6" opacity="1.000000" stroke="none" 
	d="
M350.659393,153.539185 
	C341.735443,158.516342 332.676849,163.203430 323.040710,168.147720 
	C321.744354,168.659805 321.025482,168.914703 320.014160,168.895203 
	C319.148621,164.603729 318.129944,160.589523 318.103729,156.568878 
	C318.061218,150.045334 318.669312,143.517578 319.002716,136.991592 
	C329.510071,142.410782 340.017395,147.829971 350.659393,153.539185 
z"/>
<path fill="#DADE02" opacity="1.000000" stroke="none" 
	d="
M391.272339,348.869690 
	C391.272400,336.928467 391.272400,325.471741 391.272400,313.589325 
	C393.214691,313.444305 394.774414,313.327850 396.979706,313.163208 
	C396.979706,320.213135 396.979706,326.906952 396.979706,335.175751 
	C403.872253,327.034180 409.726105,320.119537 415.823334,312.917480 
	C417.068878,313.758453 418.231659,314.543549 419.949432,315.703400 
	C414.431915,322.257050 409.125153,328.560364 403.583527,335.142670 
	C409.386047,341.982483 415.027161,348.632019 420.853394,355.499786 
	C416.545807,356.801331 413.827087,355.756500 411.360687,352.580475 
	C407.190338,347.210236 402.595642,342.169617 397.312897,335.974243 
	C397.312897,343.249146 397.312897,349.381439 397.312897,355.756592 
	C395.071594,355.756592 393.486328,355.756592 391.272278,355.756592 
	C391.272278,353.584808 391.272278,351.469513 391.272339,348.869690 
z"/>
<path fill="#DADE02" opacity="1.000000" stroke="none" 
	d="
M246.907730,356.167847 
	C244.589539,355.599121 242.684448,355.095703 240.318085,354.470398 
	C240.846603,352.832916 241.268219,351.526672 241.760422,350.001770 
	C244.467529,350.615479 246.866180,351.608124 249.258972,351.594116 
	C252.658096,351.574280 256.375336,351.502075 259.331055,350.117126 
	C261.162170,349.259125 262.771484,345.913483 262.740173,343.709229 
	C262.713379,341.823303 260.588379,339.245758 258.715851,338.268463 
	C255.528671,336.604980 251.753174,336.114441 248.329239,334.848724 
	C242.400299,332.657013 239.490585,328.079590 240.267761,322.613190 
	C241.011459,317.382172 244.936081,313.382172 250.890961,313.125977 
	C255.887497,312.911011 260.933563,313.847504 266.547119,314.324280 
	C265.597473,316.765198 265.134766,317.954559 264.664429,319.163483 
	C264.002075,319.163483 263.516693,319.214355 263.045013,319.155396 
	C259.445557,318.705292 255.853317,317.914124 252.249771,317.862579 
	C248.918518,317.814911 245.994278,319.835419 246.358444,323.246246 
	C246.603943,325.545715 248.613007,328.369598 250.652557,329.594208 
	C253.556824,331.338043 257.258026,331.704193 260.537872,332.883759 
	C266.716278,335.105896 269.266754,338.848114 268.960266,344.866852 
	C268.677307,350.422699 265.204773,354.768127 259.166779,355.877045 
	C255.325867,356.582428 251.276657,356.153473 246.907730,356.167847 
z"/>
<path fill="#79B97D" opacity="1.000000" stroke="none" 
	d="
M250.992126,288.833038 
	C246.124115,286.470673 241.256073,284.108337 236.191620,281.069336 
	C236.328568,277.949158 236.909149,275.509827 236.950394,273.061401 
	C237.091568,264.681580 237.043350,256.298584 237.419357,247.990906 
	C242.153564,250.341675 246.535782,252.618332 250.939758,255.369751 
	C250.971725,266.840698 250.981934,277.836884 250.992126,288.833038 
z"/>
<path fill="#6CB588" opacity="1.000000" stroke="none" 
	d="
M237.067352,247.916779 
	C237.043350,256.298584 237.091568,264.681580 236.950394,273.061401 
	C236.909149,275.509827 236.328568,277.949158 235.961746,280.828979 
	C231.831177,279.209106 227.734024,277.152893 223.326904,274.451599 
	C223.011520,264.975647 222.868652,256.141022 223.112076,247.317017 
	C223.163239,245.462891 224.634308,243.647949 225.774109,241.890762 
	C229.753891,243.949982 233.410629,245.933380 237.067352,247.916779 
z"/>
<path fill="#DADE02" opacity="1.000000" stroke="none" 
	d="
M374.545349,351.850403 
	C377.236176,351.357330 379.510712,350.907349 382.181763,350.378906 
	C382.693604,351.692596 383.202667,352.999207 383.931213,354.869110 
	C380.875946,355.496643 378.178070,356.217316 375.432983,356.586548 
	C361.563080,358.452209 353.387756,351.464081 352.944702,337.460693 
	C352.913177,336.464172 352.901215,335.466187 352.913055,334.469269 
	C353.131348,316.091217 364.249664,308.510712 382.122314,314.843964 
	C382.301025,318.094971 381.598389,319.316071 377.657623,318.382202 
	C365.310211,315.456055 359.250885,320.340698 358.880768,332.976624 
	C358.832123,334.636322 358.838593,336.303040 358.929352,337.960480 
	C359.490356,348.207764 363.793579,352.139313 374.545349,351.850403 
z"/>
<path fill="#9FC45F" opacity="1.000000" stroke="none" 
	d="
M329.961884,247.975433 
	C325.573120,250.323395 321.184357,252.671371 316.270630,254.713638 
	C315.504883,253.294434 315.063141,252.182449 315.054688,251.067200 
	C314.981201,241.316742 314.985199,231.565704 315.123352,221.591553 
	C315.896790,220.982071 316.513031,220.595856 317.457642,220.106323 
	C319.525360,219.005829 321.264709,218.008636 323.338684,216.947449 
	C325.101532,216.225113 326.529816,215.566757 327.967468,215.378387 
	C327.711273,224.650635 327.275452,233.453659 327.314484,242.254562 
	C327.322968,244.165390 329.034668,246.068680 329.961884,247.975433 
z"/>
<path fill="#AEC853" opacity="1.000000" stroke="none" 
	d="
M330.301819,247.872650 
	C329.034668,246.068680 327.322968,244.165390 327.314484,242.254562 
	C327.275452,233.453659 327.711273,224.650635 328.177734,215.148773 
	C329.594910,213.735382 330.811127,213.021606 332.373718,212.193115 
	C335.129913,211.003601 337.539734,209.928833 339.961823,209.331726 
	C339.982727,218.698471 339.925293,227.588516 340.053467,236.475876 
	C340.080444,238.347900 340.788330,240.210083 341.182495,242.076797 
	C337.668915,243.974487 334.155334,245.872177 330.301819,247.872650 
z"/>
<path fill="#65B38D" opacity="1.000000" stroke="none" 
	d="
M251.352036,288.849670 
	C250.981934,277.836884 250.971725,266.840698 251.243500,255.205017 
	C255.351181,252.678452 259.176880,250.791412 263.002014,249.332611 
	C263.001099,258.703247 262.901886,267.647675 263.083862,276.586334 
	C263.120239,278.373474 264.229370,280.138733 264.843872,281.914093 
	C260.466553,284.231506 256.089264,286.548920 251.352036,288.849670 
z"/>
<path fill="#5FB193" opacity="1.000000" stroke="none" 
	d="
M225.451080,241.814941 
	C224.634308,243.647949 223.163239,245.462891 223.112076,247.317017 
	C222.868652,256.141022 223.011520,264.975647 223.030090,274.254272 
	C219.145599,272.719940 215.247940,270.737793 211.156799,268.077606 
	C211.002518,264.631165 210.988724,261.860779 211.090912,259.094666 
	C211.389236,251.018600 211.733871,242.944260 212.383331,235.028534 
	C216.954575,237.396866 221.202835,239.605896 225.451080,241.814941 
z"/>
<path fill="#71B684" opacity="1.000000" stroke="none" 
	d="
M265.196411,281.856628 
	C264.229370,280.138733 263.120239,278.373474 263.083862,276.586334 
	C262.901886,267.647675 263.001099,258.703247 263.217682,249.073181 
	C267.262573,246.455475 271.091217,244.525452 274.938538,243.089127 
	C274.971466,245.721832 274.930267,247.862915 275.009705,249.999496 
	C275.332458,258.679535 275.692230,267.358185 276.038391,276.037323 
	C272.541931,277.957947 269.045471,279.878540 265.196411,281.856628 
z"/>
<path fill="#7BB97C" opacity="1.000000" stroke="none" 
	d="
M251.078720,101.849831 
	C254.927048,103.659988 258.775391,105.470154 262.829285,108.014496 
	C262.649353,119.582695 262.263855,130.416718 261.532745,141.161530 
	C257.796417,139.339386 254.405716,137.606430 251.009674,135.412781 
	C251.029129,123.917992 251.053925,112.883911 251.078720,101.849831 
z"/>
<path fill="#4DACA2" opacity="1.000000" stroke="none" 
	d="
M295.994080,124.989319 
	C299.546936,126.735069 303.099823,128.480820 306.847076,130.942047 
	C307.339813,139.164383 307.895416,146.673904 307.818420,154.176926 
	C307.784424,157.492233 306.467926,160.794403 305.388794,164.066101 
	C301.367493,162.016479 297.691040,160.003326 294.384949,157.854462 
	C295.170258,156.050583 295.923218,154.386642 295.944092,152.713577 
	C296.059357,143.473389 295.996124,134.230972 295.994080,124.989319 
z"/>
<path fill="#DEE202" opacity="1.000000" stroke="none" 
	d="
M276.728119,313.258636 
	C285.819946,313.243286 294.484283,313.326263 303.145477,313.198242 
	C306.526947,313.148285 307.208282,314.585785 306.113098,318.008179 
	C302.158508,318.008179 298.072388,318.008179 293.583466,318.008179 
	C293.583466,330.820435 293.583466,343.092987 293.583466,355.730408 
	C291.610535,355.845520 290.042969,355.936981 287.915741,356.061096 
	C287.915741,343.344330 287.915741,330.939056 287.915741,318.091461 
	C283.306885,318.091461 279.214966,318.091461 273.684662,318.091461 
	C274.884766,315.879669 275.592041,314.576141 276.728119,313.258636 
z"/>
<path fill="#9FC45F" opacity="1.000000" stroke="none" 
	d="
M177.151978,140.055573 
	C181.205048,137.847549 185.258102,135.639526 189.647766,133.763275 
	C190.314438,145.027542 190.644516,155.959991 190.717285,167.114868 
	C188.614243,168.254166 186.768494,169.171066 184.555939,170.077118 
	C183.455017,170.055801 182.720917,170.045334 181.775970,169.798767 
	C180.338242,168.734924 179.111359,167.907166 178.146606,166.770660 
	C178.580795,158.354538 178.796875,150.247452 178.846100,142.139343 
	C178.850296,141.448196 177.742950,140.750320 177.151978,140.055573 
z"/>
<path fill="#65B38D" opacity="1.000000" stroke="none" 
	d="
M273.966797,113.301071 
	C277.851166,115.289856 281.735535,117.278641 285.764526,119.944931 
	C285.605835,122.902466 285.078674,125.178612 285.039124,127.463196 
	C284.890289,136.068100 284.900208,144.675751 284.502991,153.200317 
	C280.423401,151.088089 276.691467,149.057907 273.132080,146.644974 
	C273.535583,144.486511 273.954742,142.711975 273.965881,140.934891 
	C274.023560,131.723984 273.976990,122.512413 273.966797,113.301071 
z"/>
<path fill="#71B684" opacity="1.000000" stroke="none" 
	d="
M273.666260,113.110092 
	C273.976990,122.512413 274.023560,131.723984 273.965881,140.934891 
	C273.954742,142.711975 273.535583,144.486511 272.785767,146.585876 
	C268.804047,145.023270 265.341187,143.137009 261.878357,141.250748 
	C262.263855,130.416718 262.649353,119.582695 263.051819,108.263779 
	C266.501068,109.492287 269.933411,111.205696 273.666260,113.110092 
z"/>
<path fill="#57AF9A" opacity="1.000000" stroke="none" 
	d="
M284.850647,153.282364 
	C284.900208,144.675751 284.890289,136.068100 285.039124,127.463196 
	C285.078674,125.178612 285.605835,122.902466 285.987030,120.192917 
	C289.232819,121.327682 292.400696,122.891983 295.781311,124.722794 
	C295.996124,134.230972 296.059357,143.473389 295.944092,152.713577 
	C295.923218,154.386642 295.170258,156.050583 294.035278,157.806152 
	C290.493744,156.356476 287.672211,154.819427 284.850647,153.282364 
z"/>
<path fill="#B8CB4B" opacity="1.000000" stroke="none" 
	d="
M341.492340,241.909180 
	C340.788330,240.210083 340.080444,238.347900 340.053467,236.475876 
	C339.925293,227.588516 339.982727,218.698471 340.196198,209.089386 
	C343.855804,206.575058 347.293274,204.780746 350.730774,202.986435 
	C350.821167,213.626068 350.996368,224.266571 350.889801,234.904221 
	C350.877136,236.168945 349.590057,237.816269 348.429352,238.586548 
	C346.411224,239.925888 344.030762,240.719269 341.492340,241.909180 
z"/>
<path fill="#40A8AC" opacity="1.000000" stroke="none" 
	d="
M305.733643,164.102554 
	C306.467926,160.794403 307.784424,157.492233 307.818420,154.176926 
	C307.895416,146.673904 307.339813,139.164383 307.059937,131.196518 
	C310.911102,132.642166 314.743744,134.548813 318.789551,136.723541 
	C318.669312,143.517578 318.061218,150.045334 318.103729,156.568878 
	C318.129944,160.589523 319.148621,164.603729 319.824036,169.135666 
	C319.011169,170.080460 318.095978,170.510422 316.988495,170.646973 
	C313.108704,168.269897 309.421204,166.186218 305.733643,164.102554 
z"/>
<path fill="#94C168" opacity="1.000000" stroke="none" 
	d="
M314.966156,221.814835 
	C314.985199,231.565704 314.981201,241.316742 315.054688,251.067200 
	C315.063141,252.182449 315.504883,253.294434 315.915344,254.775818 
	C313.202850,256.646545 310.320679,258.149384 306.743378,259.709686 
	C305.365234,257.895233 304.078613,256.015930 304.101471,254.152679 
	C304.212646,245.100800 304.674591,236.053238 305.232422,226.744507 
	C308.623718,224.928207 311.794952,223.371521 314.966156,221.814835 
z"/>
<path fill="#8CBE6D" opacity="1.000000" stroke="none" 
	d="
M305.012329,227.004120 
	C304.674591,236.053238 304.212646,245.100800 304.101471,254.152679 
	C304.078613,256.015930 305.365234,257.895233 306.410248,259.846191 
	C303.104248,261.942200 299.436218,263.959167 295.396606,265.603027 
	C294.667053,254.400497 294.309143,243.571075 294.176697,232.496658 
	C297.938904,230.502487 301.475616,228.753311 305.012329,227.004120 
z"/>
<path fill="#84BC75" opacity="1.000000" stroke="none" 
	d="
M293.951233,232.741653 
	C294.309143,243.571075 294.667053,254.400497 295.042114,265.665771 
	C292.321136,267.427399 289.583008,268.753235 286.216003,269.786346 
	C285.069672,267.265625 284.155884,265.046509 284.105713,262.808044 
	C283.920471,254.539139 284.020660,246.263824 284.230225,237.729187 
	C287.614960,235.892197 290.783112,234.316925 293.951233,232.741653 
z"/>
<path fill="#57AF9A" opacity="1.000000" stroke="none" 
	d="
M212.060364,234.869232 
	C211.733871,242.944260 211.389236,251.018600 211.090912,259.094666 
	C210.988724,261.860779 211.002518,264.631165 210.941010,267.825195 
	C207.752243,266.699371 204.585815,265.147919 201.205521,262.896942 
	C200.994553,257.422119 200.753906,252.630997 201.061905,247.875412 
	C201.448151,241.911224 202.284317,235.976181 203.272461,230.094818 
	C206.432526,231.730484 209.246445,233.299850 212.060364,234.869232 
z"/>
<path fill="#3DA7AF" opacity="1.000000" stroke="none" 
	d="
M175.023071,216.132172 
	C178.279495,217.151749 181.232834,218.485397 184.630096,220.049500 
	C185.074020,220.279953 185.144943,220.739410 185.049698,221.165253 
	C184.636414,223.866058 184.075760,226.137558 184.043488,228.416550 
	C183.921677,237.016724 183.971588,245.619339 183.957214,254.221039 
	C180.782837,252.658798 177.608490,251.096573 174.220398,249.267975 
	C174.004364,240.241959 173.956879,231.481918 174.032700,222.722946 
	C174.050827,220.628891 174.479935,218.538376 175.023071,216.132172 
z"/>
<path fill="#79B97D" opacity="1.000000" stroke="none" 
	d="
M217.889160,118.786514 
	C220.040115,117.568497 222.191071,116.350487 225.034424,115.189392 
	C226.484253,118.013496 227.795471,120.761078 227.894257,123.551575 
	C228.179214,131.601151 227.975311,139.668015 227.628403,147.855103 
	C224.540054,149.389511 221.786697,150.796936 219.005630,151.770599 
	C218.651321,148.238434 218.107498,145.144684 218.040955,142.040726 
	C217.874802,134.291794 217.925491,126.538223 217.889160,118.786514 
z"/>
<path fill="#7BB97C" opacity="1.000000" stroke="none" 
	d="
M284.013580,237.990906 
	C284.020660,246.263824 283.920471,254.539139 284.105713,262.808044 
	C284.155884,265.046509 285.069672,267.265625 285.844666,269.776794 
	C282.983276,272.016144 279.864319,273.972351 276.391907,275.982941 
	C275.692230,267.358185 275.332458,258.679535 275.009705,249.999496 
	C274.930267,247.862915 274.971466,245.721832 275.181427,242.879974 
	C278.274963,240.781708 281.144257,239.386307 284.013580,237.990906 
z"/>
<path fill="#5FB193" opacity="1.000000" stroke="none" 
	d="
M168.976715,192.865082 
	C167.563934,193.574997 166.151154,194.284912 164.398956,195.052307 
	C162.523666,194.222000 160.987778,193.334259 159.234283,191.806534 
	C159.010651,180.114426 159.004623,169.062271 159.336838,158.097656 
	C162.445862,159.473999 165.216629,160.762833 168.164062,162.278809 
	C168.943192,162.976486 169.545639,163.446991 169.870438,164.242584 
	C169.387421,174.000122 169.182068,183.432602 168.976715,192.865082 
z"/>
<path fill="#8CBE6D" opacity="1.000000" stroke="none" 
	d="
M198.169785,129.053970 
	C201.550095,127.186852 204.930405,125.319725 208.647552,123.812340 
	C209.312744,135.093903 209.641083,146.015717 209.741318,157.189880 
	C206.350021,159.005981 203.186829,160.569733 200.017609,161.656494 
	C200.180191,151.731415 200.438583,142.283051 200.410355,132.835571 
	C200.406586,131.572815 198.952347,130.314392 198.169785,129.053970 
z"/>
<path fill="#94C168" opacity="1.000000" stroke="none" 
	d="
M197.818634,129.113312 
	C198.952347,130.314392 200.406586,131.572815 200.410355,132.835571 
	C200.438583,142.283051 200.180191,151.731415 199.804245,161.915741 
	C196.722809,164.065460 193.848709,165.478958 190.974594,166.892456 
	C190.644516,155.959991 190.314438,145.027542 189.975922,133.673187 
	C192.467468,131.891754 194.967468,130.532196 197.818634,129.113312 
z"/>
<path fill="#84BC75" opacity="1.000000" stroke="none" 
	d="
M209.969437,156.937546 
	C209.641083,146.015717 209.312744,135.093903 208.976105,123.722809 
	C210.996872,122.176987 213.025955,121.080437 215.636230,119.884148 
	C216.523880,119.638695 216.779770,119.430740 216.985062,119.160553 
	C216.985062,119.160553 217.410446,118.907890 217.649811,118.847198 
	C217.925491,126.538223 217.874802,134.291794 218.040955,142.040726 
	C218.107498,145.144684 218.651321,148.238434 218.790070,152.024139 
	C215.724625,154.120148 212.847031,155.528839 209.969437,156.937546 
z"/>
<path fill="#4DACA2" opacity="1.000000" stroke="none" 
	d="
M202.926315,230.028549 
	C202.284317,235.976181 201.448151,241.911224 201.061905,247.875412 
	C200.753906,252.630997 200.994553,257.422119 200.988495,262.634338 
	C197.846329,261.529846 194.707336,259.988525 191.597641,257.927216 
	C192.052429,254.194580 192.755325,250.989853 192.847870,247.767609 
	C193.066483,240.157150 192.994644,232.538345 193.391144,224.986374 
	C196.803467,226.709396 199.864899,228.368973 202.926315,230.028549 
z"/>
<path fill="#45AAA8" opacity="1.000000" stroke="none" 
	d="
M193.040253,224.922913 
	C192.994644,232.538345 193.066483,240.157150 192.847870,247.767609 
	C192.755325,250.989853 192.052429,254.194580 191.371246,257.680359 
	C188.872360,256.876831 186.629150,255.800247 184.171570,254.472351 
	C183.971588,245.619339 183.921677,237.016724 184.043488,228.416550 
	C184.075760,226.137558 184.636414,223.866058 185.391205,221.249146 
	C188.232056,222.245758 190.636154,223.584335 193.040253,224.922913 
z"/>
<path fill="#6CB588" opacity="1.000000" stroke="none" 
	d="
M227.963409,147.728119 
	C227.975311,139.668015 228.179214,131.601151 227.894257,123.551575 
	C227.795471,120.761078 226.484253,118.013496 225.375519,115.133667 
	C228.073730,113.356827 231.123260,111.692627 234.796417,110.301514 
	C235.613968,112.371185 235.958405,114.166260 235.976517,115.964622 
	C236.068649,125.111282 236.076248,134.258789 235.878052,143.621674 
	C233.082886,145.134247 230.523148,146.431183 227.963409,147.728119 
z"/>
<path fill="#57AF9A" opacity="1.000000" stroke="none" 
	d="
M158.998596,158.010132 
	C159.004623,169.062271 159.010651,180.114426 159.017563,191.560562 
	C151.000687,188.773880 150.991760,188.773865 150.999466,180.694992 
	C151.007736,172.032959 151.035095,163.370941 151.460815,154.353912 
	C154.244553,155.335983 156.621567,156.673065 158.998596,158.010132 
z"/>
<path fill="#5FB193" opacity="1.000000" stroke="none" 
	d="
M250.804993,101.768158 
	C251.053925,112.883911 251.029129,123.917992 250.691589,135.561523 
	C248.251022,137.073090 246.123169,137.975220 243.917328,138.475998 
	C243.687027,133.518158 243.621216,128.956711 243.361252,124.406372 
	C243.011230,118.280434 242.511551,112.163048 242.076126,106.041992 
	C244.894501,104.590157 247.712875,103.138313 250.804993,101.768158 
z"/>
<path fill="#ABC755" opacity="1.000000" stroke="none" 
	d="
M170.148102,163.917511 
	C169.545639,163.446991 168.943192,162.976486 168.167404,161.806519 
	C167.971527,155.712372 167.948975,150.317719 167.926437,144.923050 
	C170.767075,143.337891 173.607712,141.752731 176.800171,140.111572 
	C177.742950,140.750320 178.850296,141.448196 178.846100,142.139343 
	C178.796875,150.247452 178.580795,158.354538 177.806549,166.698013 
	C174.852280,165.928589 172.500183,164.923050 170.148102,163.917511 
z"/>
<path fill="#F2F2F2" opacity="1.000000" stroke="none" 
	d="
M138.987961,342.989929 
	C138.987961,332.902679 138.987961,323.314148 138.987961,313.482727 
	C140.988693,313.482727 142.562271,313.482727 144.464447,313.482727 
	C144.464447,327.617889 144.464447,341.615662 144.464447,355.821716 
	C142.702789,355.821716 141.104599,355.821716 138.987961,355.821716 
	C138.987961,351.696472 138.987961,347.592560 138.987961,342.989929 
z"/>
<path fill="#65B38D" opacity="1.000000" stroke="none" 
	d="
M241.733551,106.099304 
	C242.511551,112.163048 243.011230,118.280434 243.361252,124.406372 
	C243.621216,128.956711 243.687027,133.518158 243.602844,138.629333 
	C240.948746,140.591324 238.531097,141.998672 236.113464,143.406006 
	C236.076248,134.258789 236.068649,125.111282 235.976517,115.964622 
	C235.958405,114.166260 235.613968,112.371185 235.147400,110.250351 
	C237.046829,108.669601 239.218887,107.413109 241.733551,106.099304 
z"/>
<path fill="#4DACA2" opacity="1.000000" stroke="none" 
	d="
M350.598450,202.687073 
	C347.293274,204.780746 343.855804,206.575058 340.183929,208.611710 
	C337.539734,209.928833 335.129913,211.003601 332.369476,211.699219 
	C332.022675,206.928925 332.026459,202.537796 332.030273,198.146683 
	C333.675079,197.216125 335.319885,196.285568 337.241241,195.261261 
	C341.833893,197.574249 346.149994,199.980972 350.598450,202.687073 
z"/>
<path fill="#B8CB4B" opacity="1.000000" stroke="none" 
	d="
M167.573074,144.981216 
	C167.948975,150.317719 167.971527,155.712372 167.990753,161.579346 
	C165.216629,160.762833 162.445862,159.473999 159.336838,158.097656 
	C156.621567,156.673065 154.244553,155.335983 151.544159,153.876175 
	C156.553772,150.848755 161.886749,147.944077 167.573074,144.981216 
z"/>
<path fill="#068397" opacity="1.000000" stroke="none" 
	d="
M350.957977,379.331543 
	C351.995148,377.967255 352.966858,376.352509 354.068787,376.258087 
	C358.138885,375.909485 359.967834,378.760590 359.041687,384.756714 
	C358.322815,389.410767 354.563446,387.849426 350.952301,387.772003 
	C350.952301,384.962646 350.952301,382.370758 350.957977,379.331543 
z"/>
<path fill="#068397" opacity="1.000000" stroke="none" 
	d="
M200.277069,378.919739 
	C196.432526,378.197266 195.182602,380.115723 195.827316,383.075439 
	C197.001572,388.466309 200.575012,384.569458 203.194397,384.332458 
	C203.354568,384.873352 203.514740,385.414276 203.674927,385.955170 
	C201.745087,386.639099 199.367813,388.357269 197.991501,387.761841 
	C195.984650,386.893585 193.536560,384.429688 193.424622,382.520111 
	C193.308731,380.543152 195.310608,377.674561 197.195236,376.540558 
	C199.592789,375.097931 202.197556,376.265991 203.885864,379.901581 
	C202.321671,379.498779 201.482162,379.282562 200.277069,378.919739 
z"/>
<path fill="#068397" opacity="1.000000" stroke="none" 
	d="
M120.228134,380.241882 
	C120.086472,377.500244 120.740181,375.546967 123.449959,376.245728 
	C125.113258,376.674622 126.509171,378.140411 128.025146,379.140564 
	C127.064835,380.442780 126.121109,381.757690 125.139900,383.043945 
	C123.984253,384.558899 122.796165,386.049072 120.719772,388.703674 
	C120.518394,385.427612 120.372345,383.051575 120.228134,380.241882 
z"/>
<path fill="#068397" opacity="1.000000" stroke="none" 
	d="
M325.628693,387.525757 
	C326.701874,383.617065 328.036438,379.958038 329.371002,376.299011 
	C329.897125,376.257416 330.423248,376.215820 330.949371,376.174255 
	C332.433685,379.770355 333.917999,383.366486 335.057068,386.126190 
	C331.665894,386.736298 328.777985,387.255859 325.628693,387.525757 
z"/>
<path fill="#068397" opacity="1.000000" stroke="none" 
	d="
M267.456116,386.427612 
	C265.410675,386.552917 263.577484,386.955505 261.011719,387.518951 
	C263.760468,384.033142 264.388336,380.265594 260.651855,376.569611 
	C261.115814,376.425751 261.579742,376.281891 262.043701,376.138062 
	C263.270294,377.266022 264.496887,378.393951 266.604645,380.332184 
	C267.357697,378.736176 268.133942,377.090973 268.910217,375.445770 
	C269.569550,375.732727 270.228851,376.019714 270.888153,376.306671 
	C268.388306,380.087860 266.619171,383.830658 270.098877,387.913788 
	C269.288696,387.510834 268.478546,387.107880 267.456116,386.427612 
z"/>
<path fill="#068397" opacity="1.000000" stroke="none" 
	d="
M240.065201,387.994476 
	C238.845261,384.362183 238.060532,380.762543 237.177017,376.709778 
	C240.760651,376.709778 243.138016,376.709778 245.515396,376.709778 
	C245.548523,377.023163 245.581665,377.336548 245.614792,377.649933 
	C243.869995,378.224243 242.125183,378.798553 239.083618,379.799683 
	C241.932678,380.702881 243.559525,381.218597 246.413635,382.123413 
	C243.489929,382.977020 241.816864,383.465485 240.143814,383.953979 
	C240.132797,384.362946 240.121796,384.771942 240.110779,385.180908 
	C241.914902,385.659515 243.719025,386.138092 245.523163,386.616699 
	C245.522278,386.982819 245.521408,387.348938 245.520538,387.715088 
	C243.847153,387.819092 242.173782,387.923096 240.065201,387.994476 
z"/>
<path fill="#068397" opacity="1.000000" stroke="none" 
	d="
M379.677856,381.314301 
	C380.680481,382.957733 381.855835,384.422607 381.871887,385.900085 
	C381.879486,386.602631 379.650909,387.944397 378.484100,387.892822 
	C376.939941,387.824554 375.443634,386.674561 373.926788,385.989471 
	C374.128754,385.532715 374.330719,385.075958 374.532684,384.619232 
	C376.157288,385.063171 377.781891,385.507141 379.782715,386.053925 
	C379.616882,381.921661 371.661041,382.167267 375.820129,377.225983 
	C376.664764,376.222443 379.306274,376.731354 381.119446,376.542999 
	C381.195953,377.094971 381.272461,377.646942 381.348969,378.198914 
	C380.130859,378.509277 378.912750,378.819672 377.214661,379.252380 
	C378.085663,380.013885 378.730164,380.577393 379.677856,381.314301 
z"/>
<path fill="#068397" opacity="1.000000" stroke="none" 
	d="
M153.077759,381.169495 
	C152.986618,383.626068 152.895218,385.644379 152.798264,387.785187 
	C151.015381,385.947510 149.663635,384.554169 148.311859,383.160858 
	C147.134521,384.584198 145.957184,386.007507 144.363007,387.934784 
	C144.363007,383.949127 144.363007,380.337738 144.363007,376.841248 
	C145.943527,378.331055 147.349518,379.656372 148.755524,380.981659 
	C149.869904,379.655762 150.984283,378.329865 152.571838,376.440979 
	C152.744980,377.909973 152.911240,379.320557 153.077759,381.169495 
z"/>
<path fill="#068397" opacity="1.000000" stroke="none" 
	d="
M178.104492,377.800262 
	C176.540909,381.303650 175.095337,384.506042 173.421570,388.213898 
	C171.771698,384.194214 170.242752,380.469116 168.713821,376.744049 
	C169.061432,376.379242 169.409058,376.014465 169.756683,375.649689 
	C170.876968,377.169189 171.997238,378.688721 173.365738,380.544891 
	C174.415359,379.144806 175.267731,377.848663 176.325760,376.750671 
	C176.505478,376.564178 177.567902,377.228180 178.104492,377.800262 
z"/>
<path fill="#068397" opacity="1.000000" stroke="none" 
	d="
M303.949463,383.000732 
	C303.949188,380.602173 303.949188,378.656647 303.949188,376.711121 
	C304.472321,376.662964 304.995422,376.614838 305.518555,376.566711 
	C305.829254,379.414642 306.139984,382.262573 306.479614,385.375610 
	C307.829834,385.770508 309.276947,386.193726 310.724060,386.616943 
	C310.710907,386.984131 310.697784,387.351288 310.684631,387.718475 
	C308.713684,387.829468 306.742706,387.940491 304.322510,388.076813 
	C304.181305,386.325348 304.065521,384.889587 303.949463,383.000732 
z"/>
<path fill="#79B97D" opacity="1.000000" stroke="none" 
	d="
M216.726990,119.190804 
	C216.779770,119.430740 216.523880,119.638695 215.979340,119.861679 
	C215.983826,119.699654 216.226379,119.460350 216.726990,119.190804 
z"/>
<path fill="#C5CF40" opacity="1.000000" stroke="none" 
	d="
M317.180756,170.940384 
	C318.095978,170.510422 319.011169,170.080460 320.116516,169.410049 
	C321.025482,168.914703 321.744354,168.659805 322.746857,168.355011 
	C323.020416,176.867615 322.905182,185.432190 323.072510,193.991226 
	C323.115509,196.189819 324.049194,198.370987 324.653809,201.060852 
	C323.830383,202.129257 322.926758,202.696976 321.695557,203.354950 
	C318.249939,204.967270 315.131927,206.489304 311.709656,207.813141 
	C310.624390,205.505676 309.244293,203.417862 309.167908,201.283386 
	C308.863464,192.776199 308.965088,184.254471 309.142944,175.491425 
	C311.973267,173.809952 314.576996,172.375168 317.180756,170.940384 
z"/>
<path fill="#5FB193" opacity="1.000000" stroke="none" 
	d="
M322.023163,203.264679 
	C322.926758,202.696976 323.830383,202.129257 324.950134,201.322815 
	C327.230316,200.144821 329.294373,199.205551 331.694336,198.206482 
	C332.026459,202.537796 332.022675,206.928925 332.023132,211.813934 
	C330.811127,213.021606 329.594910,213.735382 328.168396,214.678772 
	C326.529816,215.566757 325.101532,216.225113 323.173035,216.566483 
	C322.456238,211.921219 322.239716,207.592957 322.023163,203.264679 
z"/>
<path fill="#2A2C2B" opacity="1.000000" stroke="none" 
	d="
M193.391144,224.986374 
	C190.636154,223.584335 188.232056,222.245758 185.486450,220.823303 
	C185.144943,220.739410 185.074020,220.279953 184.980591,220.067078 
	C186.151459,219.089798 187.415787,218.325394 189.217865,217.267731 
	C191.502136,215.977295 193.248642,214.980133 195.339233,213.941040 
	C196.526123,213.525269 197.368927,213.151443 198.528732,212.909515 
	C202.233841,214.686478 205.621948,216.331558 209.222061,218.224121 
	C210.621216,218.996902 211.808350,219.522202 213.197937,220.300476 
	C214.578537,221.093140 215.756699,221.632812 217.121216,222.438934 
	C218.506531,223.205582 219.705475,223.705780 221.108673,224.473083 
	C223.556580,225.788284 225.800232,226.836380 228.314056,228.104645 
	C232.388199,230.229431 236.192154,232.134048 240.215729,234.298523 
	C243.537613,236.091660 246.639893,237.624954 249.985504,239.402252 
	C256.148651,236.753647 262.068481,233.861023 268.324097,230.863693 
	C273.479126,228.182999 278.298309,225.607010 283.438477,222.885437 
	C287.951508,220.548920 292.143555,218.357986 296.673340,216.097290 
	C299.358643,214.945953 301.706177,213.864380 304.369995,212.940125 
	C308.833923,215.468185 312.981628,217.838913 317.129303,220.209656 
	C316.513031,220.595856 315.896790,220.982071 315.123352,221.591553 
	C311.794952,223.371521 308.623718,224.928207 305.232422,226.744507 
	C301.475616,228.753311 297.938904,230.502487 294.176697,232.496658 
	C290.783112,234.316925 287.614960,235.892197 284.230225,237.729187 
	C281.144257,239.386307 278.274963,240.781708 275.162750,242.386261 
	C271.091217,244.525452 267.262573,246.455475 263.218262,248.644928 
	C259.176880,250.791412 255.351181,252.678452 251.221741,254.730240 
	C246.535782,252.618332 242.153564,250.341675 237.419357,247.990906 
	C233.410629,245.933380 229.753891,243.949982 225.774109,241.890762 
	C221.202835,239.605896 216.954575,237.396866 212.383331,235.028534 
	C209.246445,233.299850 206.432526,231.730484 203.272461,230.094818 
	C199.864899,228.368973 196.803467,226.709396 193.391144,224.986374 
z"/>
<path fill="#6CB588" opacity="1.000000" stroke="none" 
	d="
M169.870438,164.242584 
	C172.500183,164.923050 174.852280,165.928589 177.544434,167.006775 
	C179.111359,167.907166 180.338242,168.734924 181.779984,170.262238 
	C182.017105,176.025803 182.039368,181.089813 182.061630,186.153809 
	C177.933319,188.374374 173.805008,190.594955 169.326706,192.840302 
	C169.182068,183.432602 169.387421,174.000122 169.870438,164.242584 
z"/>
<path fill="#C5CF40" opacity="1.000000" stroke="none" 
	d="
M194.995148,213.982971 
	C193.248642,214.980133 191.502136,215.977295 189.414337,217.015869 
	C187.861984,209.924957 185.117722,203.046417 187.433624,195.455002 
	C188.412582,192.246033 187.284027,188.394119 187.322235,184.292236 
	C188.931915,183.101089 190.332779,182.452133 192.080048,182.034882 
	C193.116791,186.847397 194.083282,191.407501 194.428757,196.014191 
	C194.876450,201.984375 194.829269,207.991653 194.995148,213.982971 
z"/>
<path fill="#71B684" opacity="1.000000" stroke="none" 
	d="
M191.733643,181.803177 
	C190.332779,182.452133 188.931915,183.101089 187.259155,183.946350 
	C185.564560,184.766815 184.141861,185.390991 182.390381,186.084488 
	C182.039368,181.089813 182.017105,176.025803 181.990814,170.498322 
	C182.720917,170.045334 183.455017,170.055801 184.593414,170.435181 
	C189.126160,173.202957 193.254623,175.601837 197.117950,178.229187 
	C195.146423,179.572830 193.440033,180.688004 191.733643,181.803177 
z"/>
<path fill="#2A2C2B" opacity="1.000000" stroke="none" 
	d="
M224.822052,346.650696 
	C219.738098,352.057251 213.545258,351.241913 207.227722,351.113373 
	C207.227722,340.105286 207.227722,329.362427 207.227722,317.704254 
	C211.357361,318.178467 215.669083,317.892395 219.290619,319.336823 
	C222.184219,320.490936 225.382889,323.326569 226.434662,326.161987 
	C228.908981,332.832489 228.862457,339.844269 224.822052,346.650696 
z"/>
<path fill="#2A2C2B" opacity="1.000000" stroke="none" 
	d="
M330.795227,324.384613 
	C332.354095,328.561340 333.788055,332.388763 335.383728,336.647736 
	C330.965363,336.647736 327.114349,336.647736 322.590393,336.647736 
	C324.627441,331.330902 326.540558,326.337555 328.789001,320.468872 
	C329.691315,322.179382 330.180817,323.107330 330.795227,324.384613 
z"/>
<path fill="#65B38D" opacity="1.000000" stroke="none" 
	d="
M317.457642,220.106323 
	C312.981628,217.838913 308.833923,215.468185 304.607605,212.719757 
	C307.023956,210.898499 309.518921,209.454910 312.013916,208.011337 
	C315.131927,206.489304 318.249939,204.967270 321.695557,203.354950 
	C322.239716,207.592957 322.456238,211.921219 322.838440,216.630463 
	C321.264709,218.008636 319.525360,219.005829 317.457642,220.106323 
z"/>
<path fill="#2A2C2B" opacity="1.000000" stroke="none" 
	d="
M197.383087,178.000702 
	C193.254623,175.601837 189.126160,173.202957 184.960220,170.446030 
	C186.768494,169.171066 188.614243,168.254166 190.717285,167.114868 
	C193.848709,165.478958 196.722809,164.065460 199.810287,162.392731 
	C203.186829,160.569733 206.350021,159.005981 209.741318,157.189880 
	C212.847031,155.528839 215.724625,154.120148 218.817795,152.457916 
	C221.786697,150.796936 224.540054,149.389511 227.628403,147.855103 
	C230.523148,146.431183 233.082886,145.134247 235.878036,143.621674 
	C238.531097,141.998672 240.948746,140.591324 243.680847,139.030670 
	C246.123169,137.975220 248.251022,137.073090 250.696945,136.022232 
	C254.405716,137.606430 257.796417,139.339386 261.532715,141.161530 
	C265.341187,143.137009 268.804047,145.023270 272.613190,146.968628 
	C276.691467,149.057907 280.423401,151.088089 284.502991,153.200317 
	C287.672211,154.819427 290.493744,156.356476 293.664978,157.941864 
	C297.691040,160.003326 301.367493,162.016479 305.388794,164.066101 
	C309.421204,166.186218 313.108704,168.269897 316.988495,170.646973 
	C314.576996,172.375168 311.973267,173.809952 308.809143,175.560028 
	C306.626862,176.622009 305.004944,177.368668 303.111908,177.853546 
	C298.606018,175.587738 294.371185,173.583679 289.980835,171.311340 
	C288.542450,170.372025 287.259583,169.701004 285.761230,168.773132 
	C283.704193,167.648575 281.862640,166.780853 279.803558,165.656174 
	C277.717102,164.640564 275.848114,163.881927 273.667053,162.970047 
	C269.553253,160.659042 265.751556,158.501251 261.653442,156.145111 
	C257.920746,154.306488 254.484451,152.666245 250.684998,151.008743 
	C247.871460,152.313599 245.421082,153.635712 242.620758,155.011734 
	C239.472031,156.598007 236.673248,158.130386 233.524109,159.752029 
	C230.101929,161.537888 227.030106,163.234482 223.603897,164.990387 
	C219.069336,167.311935 214.889175,169.574142 210.369934,171.884415 
	C207.672028,173.260330 205.313202,174.588181 202.613022,175.968430 
	C200.642136,176.680771 199.012604,177.340744 197.383087,178.000702 
z"/>
<path fill="#B8CB4B" opacity="1.000000" stroke="none" 
	d="
M303.382996,178.115341 
	C305.004944,177.368668 306.626862,176.622009 308.582581,175.806732 
	C308.965088,184.254471 308.863464,192.776199 309.167908,201.283386 
	C309.244293,203.417862 310.624390,205.505676 311.709656,207.813141 
	C309.518921,209.454910 307.023956,210.898499 304.291351,212.562439 
	C301.706177,213.864380 299.358643,214.945953 296.365540,215.786835 
	C295.480011,213.612167 295.047516,211.679657 295.032959,209.744019 
	C294.966125,200.866913 295.016235,191.988907 295.313171,182.918091 
	C298.195679,181.188416 300.789337,179.651886 303.382996,178.115341 
z"/>
<path fill="#8FBF6B" opacity="1.000000" stroke="none" 
	d="
M267.988281,230.968399 
	C262.068481,233.861023 256.148651,236.753647 250.286407,239.089600 
	C250.560913,230.167191 250.878738,221.802139 250.937210,213.435303 
	C250.956284,210.704224 250.299820,207.968430 250.338837,205.212677 
	C255.832932,202.816681 260.940460,200.442795 266.037537,198.532959 
	C266.019653,207.694565 265.893097,216.394913 266.095367,225.087616 
	C266.141296,227.061493 267.327118,229.008835 267.988281,230.968399 
z"/>
<path fill="#9FC45F" opacity="1.000000" stroke="none" 
	d="
M268.324097,230.863693 
	C267.327118,229.008835 266.141296,227.061493 266.095367,225.087616 
	C265.893097,216.394913 266.019653,207.694565 266.266205,198.314484 
	C267.638885,197.084244 268.772430,196.536514 270.218811,195.849701 
	C273.042419,194.163422 275.553131,192.616211 278.383698,191.047256 
	C279.131836,191.016266 279.560150,191.006989 280.235596,191.308792 
	C280.476685,197.123474 280.139099,202.652725 280.562073,208.123154 
	C280.949341,213.132126 279.266205,218.592514 283.117523,223.031036 
	C278.298309,225.607010 273.479126,228.182999 268.324097,230.863693 
z"/>
<path fill="#ABC755" opacity="1.000000" stroke="none" 
	d="
M283.438477,222.885452 
	C279.266205,218.592514 280.949341,213.132126 280.562073,208.123154 
	C280.139099,202.652725 280.476685,197.123474 280.447052,191.077423 
	C281.607788,189.724838 282.804199,188.914673 284.351929,188.022141 
	C288.143616,186.330246 291.583984,184.720734 295.024384,183.111237 
	C295.016235,191.988907 294.966125,200.866913 295.032959,209.744019 
	C295.047516,211.679657 295.480011,213.612167 296.027832,215.856583 
	C292.143555,218.357986 287.951508,220.548920 283.438477,222.885452 
z"/>
<path fill="#ABC755" opacity="1.000000" stroke="none" 
	d="
M249.952301,205.234787 
	C250.299820,207.968430 250.956284,210.704224 250.937210,213.435303 
	C250.878738,221.802139 250.560913,230.167191 250.043060,238.845581 
	C246.639893,237.624954 243.537613,236.091660 240.216599,233.884933 
	C240.332230,224.481812 240.558167,215.745468 241.092606,207.028046 
	C241.199326,205.287231 242.483749,203.618637 243.559814,201.970062 
	C245.913773,203.093872 247.933029,204.164337 249.952301,205.234787 
z"/>
<path fill="#9FC45F" opacity="1.000000" stroke="none" 
	d="
M243.225128,201.916733 
	C242.483749,203.618637 241.199326,205.287231 241.092606,207.028046 
	C240.558167,215.745468 240.332230,224.481812 239.996979,233.625092 
	C236.192154,232.134048 232.388199,230.229431 228.300842,227.681473 
	C228.210281,225.247910 228.068222,223.339050 228.653152,221.687714 
	C231.388184,213.966476 234.323624,206.316223 237.467758,198.851227 
	C239.573761,200.013474 241.399445,200.965103 243.225128,201.916733 
z"/>
<path fill="#BFCD45" opacity="1.000000" stroke="none" 
	d="
M197.117950,178.229187 
	C199.012604,177.340744 200.642136,176.680771 202.625488,176.418304 
	C202.985855,182.720520 202.999237,188.625229 202.996841,194.529953 
	C202.994781,199.606674 202.974670,204.683380 202.691223,209.938309 
	C201.017181,211.003555 199.614456,211.890594 198.211731,212.777634 
	C197.368927,213.151443 196.526123,213.525269 195.339233,213.941040 
	C194.829269,207.991653 194.876450,201.984375 194.428757,196.014191 
	C194.083282,191.407501 193.116791,186.847397 192.080048,182.034882 
	C193.440033,180.688004 195.146423,179.572830 197.117950,178.229187 
z"/>
<path fill="#8FBF6B" opacity="1.000000" stroke="none" 
	d="
M237.187439,198.640610 
	C234.323624,206.316223 231.388184,213.966476 228.653152,221.687714 
	C228.068222,223.339050 228.210281,225.247910 228.030655,227.461304 
	C225.800232,226.836380 223.556580,225.788284 221.264801,224.135406 
	C225.162460,214.475677 229.108261,205.420761 233.333557,196.446182 
	C234.804504,197.231216 235.995972,197.935913 237.187439,198.640610 
z"/>
<path fill="#84BC75" opacity="1.000000" stroke="none" 
	d="
M233.054062,196.365845 
	C229.108261,205.420761 225.162460,214.475677 221.060547,223.868286 
	C219.705475,223.705780 218.506531,223.205582 217.188263,222.064438 
	C217.934662,219.457397 218.960907,217.544647 219.635132,215.514954 
	C221.463486,210.010712 223.142517,204.456848 224.910400,198.689758 
	C224.940033,198.456848 224.993195,197.989044 225.342285,197.938400 
	C227.797836,196.910141 229.904297,195.932526 232.078003,195.252655 
	C232.448181,195.822220 232.751114,196.094025 233.054062,196.365845 
z"/>
<path fill="#79B97D" opacity="1.000000" stroke="none" 
	d="
M224.880753,198.922668 
	C223.142517,204.456848 221.463486,210.010712 219.635132,215.514954 
	C218.960907,217.544647 217.934662,219.457397 217.001923,221.797974 
	C215.756699,221.632812 214.578537,221.093140 213.253601,219.938965 
	C215.004364,215.018005 217.015579,210.756058 218.729523,206.377731 
	C219.237701,205.079514 218.909134,203.453751 219.188477,201.729065 
	C221.235565,200.627609 223.058167,199.775131 224.880753,198.922668 
z"/>
<path fill="#6CB588" opacity="1.000000" stroke="none" 
	d="
M218.963989,201.978073 
	C218.909134,203.453751 219.237701,205.079514 218.729523,206.377731 
	C217.015579,210.756058 215.004364,215.018005 213.051163,219.685974 
	C211.808350,219.522202 210.621216,218.996902 209.221466,217.831512 
	C209.961441,213.335709 210.914062,209.480011 211.883163,205.452209 
	C211.899643,205.280121 211.974396,204.937836 212.305145,204.840698 
	C214.745270,203.821732 216.854630,202.899902 218.963989,201.978073 
z"/>
<path fill="#5FB193" opacity="1.000000" stroke="none" 
	d="
M211.866684,205.624298 
	C210.914062,209.480011 209.961441,213.335709 209.009430,217.584030 
	C205.621948,216.331558 202.233841,214.686478 198.528748,212.909515 
	C199.614456,211.890594 201.017181,211.003555 203.022583,209.852005 
	C206.372391,208.266434 209.119537,206.945374 211.866684,205.624298 
z"/>
<path fill="#ABC755" opacity="1.000000" stroke="none" 
	d="
M219.188477,201.729065 
	C216.854630,202.899902 214.745270,203.821732 212.312805,204.399612 
	C211.993073,195.174194 212.068817,186.291672 211.941147,177.412079 
	C211.914337,175.547989 211.139282,173.694656 210.709015,171.836365 
	C214.889175,169.574142 219.069336,167.311935 223.616150,165.456573 
	C224.319611,176.571945 224.656403,187.280502 224.993195,197.989044 
	C224.993195,197.989044 224.940033,198.456848 224.910400,198.689758 
	C223.058167,199.775131 221.235565,200.627609 219.188477,201.729065 
z"/>
<path fill="#ABC755" opacity="1.000000" stroke="none" 
	d="
M251.048172,151.026001 
	C254.484451,152.666245 257.920746,154.306488 261.664673,156.583862 
	C261.979492,164.586899 262.174194,171.959549 261.910034,179.315735 
	C261.788940,182.688095 263.681244,186.753113 259.198792,189.164597 
	C256.274963,187.741577 253.681732,186.381836 251.066284,184.552551 
	C251.045441,173.064011 251.046799,162.044998 251.048172,151.026001 
z"/>
<path fill="#9FC45F" opacity="1.000000" stroke="none" 
	d="
M225.342285,197.938400 
	C224.656403,187.280502 224.319611,176.571945 223.970551,165.397232 
	C227.030106,163.234482 230.101929,161.537888 233.614258,160.181641 
	C234.369583,162.619827 234.931808,164.714844 234.955948,166.816040 
	C235.055679,175.494568 234.992371,184.174973 234.708832,192.984528 
	C233.622711,193.727890 232.816727,194.341400 232.010757,194.954926 
	C229.904297,195.932526 227.797836,196.910141 225.342285,197.938400 
z"/>
<path fill="#B8CB4B" opacity="1.000000" stroke="none" 
	d="
M210.369934,171.884415 
	C211.139282,173.694656 211.914337,175.547989 211.941147,177.412079 
	C212.068817,186.291672 211.993073,195.174194 211.982056,204.496750 
	C211.974396,204.937836 211.899643,205.280121 211.883163,205.452209 
	C209.119537,206.945374 206.372391,208.266434 203.293884,209.673798 
	C202.974670,204.683380 202.994781,199.606674 202.996841,194.529953 
	C202.999237,188.625229 202.985855,182.720520 202.966858,176.365921 
	C205.313202,174.588181 207.672028,173.260330 210.369934,171.884415 
z"/>
<path fill="#9FC45F" opacity="1.000000" stroke="none" 
	d="
M259.529419,189.227875 
	C263.681244,186.753113 261.788940,182.688095 261.910034,179.315735 
	C262.174194,171.959549 261.979492,164.586899 261.961060,156.782227 
	C265.751556,158.501251 269.553253,160.659042 273.672607,163.395386 
	C273.527832,166.883484 273.480377,169.938675 272.520325,172.673508 
	C270.227966,179.203476 267.505310,185.582382 264.701111,191.981644 
	C264.293121,191.860550 264.140381,191.780075 263.844482,191.543884 
	C263.483002,191.200394 263.233948,191.072510 262.630188,190.961746 
	C261.380615,190.355286 260.455017,189.791580 259.529419,189.227875 
z"/>
<path fill="#94C168" opacity="1.000000" stroke="none" 
	d="
M234.988983,192.854691 
	C234.992371,184.174973 235.055679,175.494568 234.955948,166.816040 
	C234.931808,164.714844 234.369583,162.619827 233.964630,160.092377 
	C236.673248,158.130386 239.472031,156.598007 242.629517,155.482880 
	C242.984726,166.915222 242.981247,177.930283 242.750763,189.197571 
	C240.012161,190.584763 237.500565,191.719727 234.988983,192.854691 
z"/>
<path fill="#8CBE6D" opacity="1.000000" stroke="none" 
	d="
M242.977783,188.945343 
	C242.981247,177.930283 242.984726,166.915222 242.979462,155.428986 
	C245.421082,153.635712 247.871460,152.313599 250.684998,151.008743 
	C251.046799,162.044998 251.045441,173.064011 250.753250,184.711487 
	C247.967545,186.541763 245.472656,187.743546 242.977783,188.945343 
z"/>
<path fill="#8CBE6D" opacity="1.000000" stroke="none" 
	d="
M264.956421,192.022278 
	C267.505310,185.582382 270.227966,179.203476 272.520325,172.673508 
	C273.480377,169.938675 273.527832,166.883484 273.984680,163.548615 
	C275.848114,163.881927 277.717102,164.640564 279.786377,166.050415 
	C276.268646,175.820129 272.550598,184.938660 268.516052,194.013824 
	C267.118500,193.321075 266.037476,192.671677 264.956421,192.022278 
z"/>
<path fill="#7BB97C" opacity="1.000000" stroke="none" 
	d="
M268.832550,194.057175 
	C272.550598,184.938660 276.268646,175.820129 280.003845,166.307373 
	C281.862640,166.780853 283.704193,167.648575 285.591064,169.076126 
	C282.887482,175.894287 280.091736,182.133026 277.457886,188.439392 
	C277.176178,189.113907 277.839111,190.182953 278.063843,191.068970 
	C275.553131,192.616211 273.042419,194.163422 270.187714,195.567291 
	C269.506683,194.968353 269.169617,194.512756 268.832550,194.057175 
z"/>
<path fill="#5FB193" opacity="1.000000" stroke="none" 
	d="
M295.313171,182.918091 
	C291.583984,184.720734 288.143616,186.330246 284.368835,187.633194 
	C286.068451,182.077621 288.102417,176.828629 290.136383,171.579636 
	C294.371185,173.583679 298.606018,175.587738 303.111908,177.853577 
	C300.789337,179.651886 298.195679,181.188416 295.313171,182.918091 
z"/>
<path fill="#71B684" opacity="1.000000" stroke="none" 
	d="
M289.980835,171.311340 
	C288.102417,176.828629 286.068451,182.077621 284.017517,187.715561 
	C282.804199,188.914673 281.607788,189.724838 280.199890,190.766357 
	C279.560150,191.006989 279.131836,191.016266 278.383698,191.047241 
	C277.839111,190.182953 277.176178,189.113907 277.457886,188.439392 
	C280.091736,182.133026 282.887482,175.894287 285.806549,169.332977 
	C287.259583,169.701004 288.542450,170.372025 289.980835,171.311340 
z"/>
<path fill="#2A2C2B" opacity="1.000000" stroke="none" 
	d="
M268.516052,194.013824 
	C269.169617,194.512756 269.506683,194.968353 269.874878,195.706360 
	C268.772430,196.536514 267.638885,197.084244 266.276672,197.850449 
	C260.940460,200.442795 255.832932,202.816681 250.338837,205.212677 
	C247.933029,204.164337 245.913773,203.093872 243.559814,201.970062 
	C241.399445,200.965103 239.573761,200.013474 237.467758,198.851227 
	C235.995972,197.935913 234.804504,197.231216 233.333557,196.446182 
	C232.751114,196.094025 232.448181,195.822220 232.078003,195.252655 
	C232.816727,194.341400 233.622711,193.727890 234.708832,192.984528 
	C237.500565,191.719727 240.012161,190.584763 242.750763,189.197571 
	C245.472656,187.743546 247.967545,186.541763 250.775467,185.181030 
	C253.681732,186.381836 256.274963,187.741577 259.198792,189.164597 
	C260.455017,189.791580 261.380615,190.355286 262.751343,191.146912 
	C263.402863,191.622772 263.666565,191.731033 263.987610,191.699615 
	C264.140381,191.780075 264.293121,191.860550 264.701111,191.981644 
	C266.037476,192.671677 267.118500,193.321075 268.516052,194.013824 
z"/>
<path fill="#8CBE6D" opacity="1.000000" stroke="none" 
	d="
M263.844482,191.543884 
	C263.666565,191.731033 263.402863,191.622772 263.075317,191.189651 
	C263.233948,191.072510 263.483002,191.200394 263.844482,191.543884 
z"/>
</svg>