<?xml version="1.0" standalone="no"?>
<!DOCTYPE svg PUBLIC "-//W3C//DTD SVG 20010904//EN"
 "http://www.w3.org/TR/2001/REC-SVG-20010904/DTD/svg10.dtd">
<svg version="1.0" xmlns="http://www.w3.org/2000/svg"
 width="500.000000pt" height="500.000000pt" viewBox="0 0 500.000000 500.000000"
 preserveAspectRatio="xMidYMid meet">

<g transform="translate(0.000000,500.000000) scale(0.100000,-0.100000)"
fill="#000000" stroke="none">
<path d="M0 2500 l0 -2500 2500 0 2500 0 0 2500 0 2500 -2500 0 -2500 0 0
-2500z m3006 1233 l493 -258 1 -172 0 -172 -70 -37 -69 -38 67 -36 67 -36 2
-175 3 -174 -500 -259 -501 -258 -417 217 c-229 120 -454 238 -499 262 l-83
45 0 172 0 172 72 35 73 36 -73 37 -72 36 0 173 0 173 493 257 c270 141 498
257 506 257 8 0 236 -116 507 -257z m-2027 -2030 c30 -95 58 -173 61 -173 4 0
31 78 61 173 l55 172 42 3 c49 4 44 21 72 -215 26 -220 26 -213 -4 -213 -31 0
-31 0 -52 188 -10 83 -21 149 -25 145 -4 -5 -31 -81 -60 -170 l-54 -163 -36 0
-35 0 -54 170 c-29 93 -56 167 -59 164 -3 -3 -15 -78 -26 -167 l-20 -162 -27
-3 c-34 -4 -33 -16 -8 196 30 254 24 234 73 230 l41 -3 55 -172z m461 -38 l0
-215 -30 0 -30 0 0 215 0 215 30 0 30 0 0 -215z m285 41 l110 -174 3 174 2
174 30 0 30 0 0 -216 0 -215 -37 3 c-37 3 -40 7 -145 172 l-108 169 0 -171 0
-172 -30 0 -30 0 0 215 0 215 33 0 c31 0 36 -7 142 -174z m511 143 c82 -41
115 -153 80 -271 -28 -96 -86 -128 -233 -128 l-83 0 0 216 0 217 94 -5 c73 -4
105 -11 142 -29z m383 20 c33 -12 36 -16 22 -37 -6 -10 -20 -11 -57 -5 -68 12
-105 3 -123 -29 -26 -46 -4 -73 81 -99 92 -28 138 -69 138 -123 0 -50 -24 -92
-63 -113 -37 -20 -155 -23 -200 -5 -24 10 -26 14 -17 33 8 14 17 18 28 14 38
-15 113 -17 142 -5 35 14 50 37 50 73 0 34 -20 48 -109 77 -61 20 -80 31 -98
59 -13 19 -23 45 -23 58 0 39 29 83 63 98 39 17 122 19 166 4z m439 -16 c3
-22 0 -23 -67 -23 l-71 0 0 -190 0 -190 -25 0 -25 0 0 190 0 190 -65 0 c-63 0
-65 1 -65 25 l0 26 158 -3 c154 -3 157 -3 160 -25z m278 -45 c15 -40 54 -137
85 -216 l58 -143 -31 3 c-29 3 -33 9 -56 71 l-25 67 -86 0 -86 0 -26 -67 c-24
-62 -29 -68 -57 -71 l-31 -3 87 215 c82 207 87 216 113 216 25 0 30 -7 55 -72z
m472 58 c20 -12 -5 -48 -28 -41 -11 3 -42 6 -70 7 -92 0 -130 -49 -130 -166 0
-146 69 -204 198 -167 29 9 34 7 41 -12 10 -26 -5 -34 -84 -43 -96 -12 -169
29 -201 113 -24 62 -16 185 17 243 35 64 76 82 170 77 41 -2 81 -7 87 -11z
m152 -97 l0 -111 63 74 c34 40 76 91 94 112 27 33 34 37 47 26 9 -7 16 -16 16
-21 0 -4 -34 -47 -75 -96 -41 -48 -75 -91 -75 -94 0 -5 100 -127 153 -186 l20
-23 -35 0 c-32 0 -42 8 -119 101 l-84 100 -3 -100 -3 -101 -29 0 -30 0 0 208
c0 115 3 212 7 215 3 4 17 7 30 7 23 0 23 -1 23 -111z"/>
<path d="M2165 3479 c-176 -92 -321 -172 -322 -176 -2 -5 27 -23 63 -41 l66
-33 259 136 c143 74 264 135 269 135 6 0 126 -61 268 -136 l257 -136 72 38
c40 21 72 38 70 39 -14 12 -666 345 -673 344 -5 -1 -153 -77 -329 -170z"/>
<path d="M2408 3112 c-48 -26 -90 -51 -94 -54 -3 -4 37 -28 90 -55 l96 -47 91
44 c50 25 93 48 95 52 4 5 -175 108 -187 108 -2 0 -43 -22 -91 -48z"/>
<path d="M1903 2847 c-35 -17 -63 -34 -63 -38 0 -3 149 -83 330 -178 l331
-171 329 172 c182 95 330 175 330 178 0 6 -122 71 -133 70 -4 0 -125 -61 -267
-135 l-260 -136 -259 136 c-143 74 -263 135 -268 134 -4 0 -36 -14 -70 -32z"/>
<path d="M2060 1666 l0 -166 50 0 c111 0 153 42 154 154 1 124 -31 163 -146
173 l-58 6 0 -167z"/>
<path d="M3247 1727 c-15 -41 -27 -77 -27 -80 0 -10 120 -9 120 1 0 13 -54
152 -60 152 -3 0 -18 -33 -33 -73z"/>
</g>
</svg>
